# AST/ASF file generated using VICON BodyLanguage
# -----------------------------------------------
:version 1.10
:name VICON
:units
  mass 1.0
  length 0.45
  angle deg
:documentation
   .ast/.asf automatically generated from VICON data using
   VICON BodyBuilder and BodyLanguage model FoxedUp or BRILLIANT.MOD
:root
   order TX TY TZ RX RY RZ
   axis XYZ
   position 0 0 0  
   orientation 0 0 0 
:bonedata
  begin
     id 1 
     name lhipjoint
     direction 0.523584 -0.783993 0.333487 
     length 2.44404 
     axis 0 0 0  XYZ
  end
  begin
     id 2 
     name lfemur
     direction 0.34202 -0.939693 0  
     length 7.29523  
     axis 0 0 20  XYZ
    dof rx ry rz
    limits (-160.0 20.0)
           (-70.0 70.0)
           (-60.0 70.0)
  end
  begin
     id 3 
     name ltibia
     direction 0.34215 -0.939645 0   
     length 7.81194   
     axis 0 0 20   XYZ
    dof rx
    limits (-10.0 170.0)
  end
  begin
     id 4 
     name lfoot
     direction 0.0941847 -0.25877 0.961336   
     length 2.41437   
     axis -90 7.62852e-016 20   XYZ
    dof rx rz
    limits (-45.0 90.0)
           (-70.0 20.0)
  end
  begin
     id 5 
     name ltoes
     direction 1.53526e-011 -4.21768e-011 1   
     length 1.2048   
     axis -90 7.62852e-016 20   XYZ
    dof rx
    limits (-90.0 20.0)
  end
  begin
     id 6 
     name rhipjoint
     direction -0.46599 -0.814191 0.346332   
     length 2.35339  
     axis 0 0 0  XYZ 
  end
  begin
     id 7 
     name rfemur
     direction -0.34202 -0.939693 0   
     length 7.34966   
     axis 0 0 -20   XYZ
    dof rx ry rz
    limits (-160.0 20.0)
           (-70.0 70.0)
           (-70.0 60.0)
  end
  begin
     id 8 
     name rtibia
     direction -0.34202 -0.939693 0   
     length 7.89934   
     axis 0 0 -20   XYZ
    dof rx
    limits (-10.0 170.0)
 end
 begin
     id 9 
     name rfoot
     direction -0.0975468 -0.268008 0.958466   
     length 2.27725  
     axis -90 -7.62852e-016 -20   XYZ
    dof rx rz
    limits (-45.0 90.0)
           (-20.0 70.0)
  end
  begin
     id 10 
     name rtoes
     direction -1.53563e-011 -4.22022e-011 1   
     length 1.13683   
     axis -90 -7.62852e-016 -20   XYZ
    dof rx
    limits (-90.0 20.0)
  end
  begin
     id 11 
     name lowerback
     direction -0.00456414 0.999242 -0.0386661   
     length 2.16968   
     axis 0 0 0   XYZ
    dof rx ry rz
    limits (-20.0 45.0)
           (-30.0 30.0)
           (-30.0 30.0)
  end
  begin
     id 12 
     name upperback
     direction 0.0297078 0.998988 0.0337799   
     length 2.15674   
     axis 0 0 0   XYZ
    dof rx ry rz
    limits (-20.0 45.0)
           (-30.0 30.0)
           (-30.0 30.0)
  end
  begin
     id 13 
     name thorax
     direction 0.0309305 0.998202 0.0513506   
     length 2.16319   
     axis 0 0 0   XYZ
    dof rx ry rz
    limits (-20.0 45.0)
           (-30.0 30.0)
           (-30.0 30.0)
  end
  begin
     id 14 
     name lowerneck
     direction -0.103039 0.983474 0.148872   
     length 1.64318   
     axis 0 0 0   XYZ
    dof rx ry rz
    limits (-20.0 45.0)
           (-30.0 30.0)
           (-30.0 30.0)
  end
  begin
     id 15 
     name upperneck
     direction 0.128124 0.971079 -0.201469   
     length 1.68242   
     axis 0 0 0   XYZ
    dof rx ry rz
    limits (-20.0 45.0)
           (-30.0 30.0)
           (-30.0 30.0)
  end
  begin
     id 16
     name head
     direction 0.0496365 0.994919 -0.0875941  
     length 1.70108  
     axis 0 0 0   XYZ
    dof rx ry rz
    limits (-20.0 45.0)
           (-30.0 30.0)
           (-30.0 30.0)
  end
  begin
     id 17 
     name lclavicle
     direction 0.887148 0.430222 -0.166967  
     length 3.25763  
     axis 0 0 0   XYZ
    dof ry rz
    limits (-20.0 10.0)
           (0.0 20.0)
  end
  begin
     id 18 
     name lhumerus
     direction 1 -4.48962e-011 1.92156e-027   
     length 5.10755   
     axis 180 -30 -90   XYZ
    dof rx ry rz
    limits (-60.0 90.0)
           (-90.0 90.0)
           (-90.0 90.0)
  end
  begin
     id 19
     name lradius
     direction 1 -4.48958e-011 7.10963e-027   
     length 3.36253   
     axis 180 -30 -90   XYZ
    dof rx
    limits (-10.0 170.0)
  end
  begin
     id 20
     name lwrist
     direction 1 -4.48946e-011 1.82396e-026   
     length 1.68127   
     axis -1.15222e-014 90 90   XYZ
    dof ry
    limits (-180.0 0.0)
 end
  begin
     id 21 
     name lhand
     direction 1 -4.48919e-011 3.64759e-026   
     length 0.619088   
     axis -2.32787e-014 90 90   XYZ
    dof rx rz
    limits (-90.0 90.0)
           (-45.0 45.0)
  end
  begin
     id 22 
     name lfingers
     direction 1 -4.49012e-011 7.29744e-026   
     length 0.499125   
     axis -4.6558e-014 90 90   XYZ
    dof rx
    limits (0.0 90.0)
  end
  begin
     id 23
     name lthumb
     direction 0.707107 -6.35028e-011 0.707107   
     length 0.716646   
     axis -90 45 3.78391e-014   XYZ
    dof rx rz
    limits (-45.0 45.0)
           (-45.0 45.0)
  end
  begin
     id 24 
     name rclavicle
     direction -0.82886 0.533198 -0.169384   
     length 3.20647  
     axis 0 0 0   XYZ 
    dof ry rz
    limits (-10.0 20.0)
           (-20.0 0.0)
  end
  begin
     id 25 
     name rhumerus
     direction -1 -4.48973e-011 3.06863e-027  
     length 5.27387   
     axis 180 30 90   XYZ
    dof rx ry rz
    limits (-90.0 60.0)
           (-90.0 90.0)
           (-90.0 90.0)
  end
  begin
     id 26 
     name rradius
     direction -1 -4.48988e-011 9.4797e-027   
     length 3.40144   
     axis 180 30 90   XYZ
    dof rx
    limits (-10.0 170.0)
  end
  begin
     id 27 
     name rwrist
     direction -1 -4.48897e-011 1.82366e-026   
     length 1.70072   
     axis -1.15222e-014 -90 -90   XYZ
    dof ry
    limits (-180.0 0.0)
  end
  begin
     id 28
     name rhand
     direction -1 -4.48965e-011 3.64815e-026   
     length 0.742821   
     axis -2.32787e-014 -90 -90   XYZ
    dof rx rz
    limits (-90.0 90.0)
           (-45.0 45.0)
  end
  begin
     id 29
     name rfingers
     direction -1 -4.49016e-011 7.29754e-026   
     length 0.598881   
     axis -4.6558e-014 -90 -90   XYZ
    dof rx
    limits (0.0 90.0)
  end
  begin
     id 30
     name rthumb
     direction -0.707107 -6.3488e-011 0.707107   
     length 0.859877   
     axis -90 -45 -3.78391e-014   XYZ
    dof rx rz
    limits (-45.0 45.0)
           (-45.0 45.0)
  end
:hierarchy
  begin
    root lhipjoint rhipjoint lowerback
    lhipjoint lfemur
    lfemur ltibia
    ltibia lfoot
    lfoot ltoes
    rhipjoint rfemur
    rfemur rtibia
    rtibia rfoot
    rfoot rtoes
    lowerback upperback
    upperback thorax
    thorax lowerneck lclavicle rclavicle
    lowerneck upperneck
    upperneck head
    lclavicle lhumerus
    lhumerus lradius
    lradius lwrist
    lwrist lhand lthumb
    lhand lfingers
    rclavicle rhumerus
    rhumerus rradius
    rradius rwrist
    rwrist rhand rthumb
    rhand rfingers
  end

#!OML:ASF F:\Work\Patient Classification 1\justin\Session 1\justin.ASF
:FULLY-SPECIFIED
:DEGREES
1327
root 0.626967 18.5026 -4.34807 5.03829 5.125 -2.54284
lowerback 9.84772 0.210034 1.08872
upperback -0.243645 0.559737 2.57423
thorax -5.8034 0.283232 1.99905
lowerneck -16.5384 -6.331 -14.4432
upperneck 14.2747 -7.50412 12.986
head 8.20561 -3.18837 5.83641
rclavicle 7.15625e-015 2.94201e-014
rhumerus 45.3144 9.50448 -51.0241
rradius 89.9269
rwrist 15.5433
rhand 2.20943 2.73104
rfingers 7.12502
rthumb 27.7049 -25.2481
lclavicle 7.15625e-015 2.94201e-014
lhumerus 28.6883 -32.759 72.5369
lradius 55.5732
lwrist -20.7034
lhand -5.89466 31.2793
lfingers 7.12502
lthumb 19.9336 60.2769
rfemur -7.35875 -0.200069 23.0956
rtibia 17.7723
rfoot -11.4968 -4.76542
rtoes -13.4568
lfemur -8.46865 1.82036 -16.5141
ltibia 18.3088
lfoot -10.6647 0.160501
ltoes -14.9023
1328
root 0.627077 18.4971 -4.34539 5.0186 4.14352 -2.72425
lowerback 9.92689 0.117353 0.90515
upperback -0.465485 0.425002 2.60882
thorax -6.08012 0.224009 2.16131
lowerneck -16.1475 -5.74595 -13.8741
upperneck 14.3716 -6.80434 12.518
head 8.02314 -2.8809 5.67823
rclavicle 1.01877e-014 1.70955e-014
rhumerus 44.531 11.0364 -51.5882
rradius 92.4645
rwrist 15.7348
rhand 2.59346 2.16638
rfingers 7.12502
rthumb 28.072 -25.7532
lclavicle 1.01877e-014 1.70955e-014
lhumerus 28.741 -31.4673 72.3651
lradius 53.6278
lwrist -20.903
lhand -5.8591 30.7414
lfingers 7.12502
lthumb 19.9678 59.7355
rfemur -7.4315 0.132123 23.276
rtibia 17.8706
rfoot -11.4238 -4.43612
rtoes -13.2891
lfemur -8.11911 2.13254 -16.351
ltibia 18.0917
lfoot -10.7013 0.70569
ltoes -15.3819
1329
root 0.628396 18.4948 -4.35549 5.06813 3.32041 -2.70463
lowerback 10.0605 -0.00931022 0.520641
upperback -0.625116 0.219949 2.64926
thorax -6.31978 0.137871 2.45509
lowerneck -16.0015 -5.24947 -13.4802
upperneck 14.4909 -6.16828 12.1342
head 7.9174 -2.59648 5.56542
rclavicle 5.96354e-015 -1.27222e-014
rhumerus 43.5074 12.4876 -51.8479
rradius 94.7459
rwrist 15.94
rhand 2.52133 1.94669
rfingers 7.12502
rthumb 28.0031 -25.9842
lclavicle 5.96354e-015 -1.27222e-014
lhumerus 29.1334 -30.0735 72.1332
lradius 51.6211
lwrist -20.7733
lhand -6.12774 30.3354
lfingers 7.12502
lthumb 19.7096 59.3562
rfemur -7.63059 0.445439 23.248
rtibia 18.0617
rfoot -11.4662 -4.24116
rtoes -12.4845
lfemur -7.95094 2.17943 -16.3924
ltibia 17.8531
lfoot -10.6217 1.26719
ltoes -15.2487
1330
root 0.634924 18.4858 -4.36499 5.12214 2.82861 -2.53512
lowerback 10.1149 -0.234854 0.0598025
upperback -0.65657 -0.13284 2.68399
thorax -6.36902 -0.0187693 2.80799
lowerneck -16.1732 -4.82771 -13.2812
upperneck 14.6794 -5.60371 12.016
head 7.92022 -2.32298 5.56675
rclavicle -1.19271e-015 -2.14687e-014
rhumerus 42.7447 13.7923 -51.9988
rradius 96.9308
rwrist 16.0656
rhand 2.92316 1.67729
rfingers 7.12502
rthumb 28.3871 -26.1902
lclavicle -1.19271e-015 -2.14687e-014
lhumerus 30.2504 -28.6903 71.5331
lradius 49.4484
lwrist -20.1884
lhand -6.6334 30.0837
lfingers 7.12502
lthumb 19.2234 59.1536
rfemur -7.82814 0.345518 23.0646
rtibia 18.2423
rfoot -11.631 -4.04203
rtoes -10.5482
lfemur -7.789 2.06608 -16.5859
ltibia 17.6917
lfoot -10.6632 1.57772
ltoes -15.4326
1331
root 0.639751 18.4805 -4.36466 5.11264 2.36462 -2.6065
lowerback 10.1752 -0.450777 -0.113461
upperback -0.69416 -0.435768 2.75489
thorax -6.42671 -0.159611 3.0296
lowerneck -16.3806 -4.45552 -13.1892
upperneck 14.9561 -5.10997 12.0321
head 7.97678 -2.07645 5.62586
rclavicle 8.59744e-015 -3.53837e-014
rhumerus 41.8789 15.0594 -52.3107
rradius 99.2047
rwrist 16.7063
rhand 4.15146 1.25529
rfingers 7.12502
rthumb 29.5603 -26.4107
lclavicle 8.59744e-015 -3.53837e-014
lhumerus 31.288 -27.3991 71.004
lradius 47.409
lwrist -19.6629
lhand -6.84714 29.9471
lfingers 7.12502
lthumb 19.0178 59.0374
rfemur -7.93332 0.19077 23.1719
rtibia 18.3849
rfoot -11.8247 -3.88729
rtoes -8.76091
lfemur -7.59522 2.09545 -16.5021
ltibia 17.6229
lfoot -10.7004 1.73928
ltoes -16.0839
1332
root 0.643847 18.4829 -4.36555 5.12343 1.70357 -2.80306
lowerback 10.3454 -0.594013 -0.153479
upperback -0.802078 -0.623622 2.80808
thorax -6.62703 -0.246616 3.14375
lowerneck -16.6779 -4.11711 -13.0211
upperneck 15.3466 -4.66878 11.9906
head 8.0912 -1.85362 5.64829
rclavicle 1.98785e-015 1.07344e-014
rhumerus 40.8205 16.4047 -52.778
rradius 101.378
rwrist 17.9228
rhand 5.09211 1.38881
rfingers 7.12502
rthumb 30.4578 -26.1146
lclavicle 1.98785e-015 1.07344e-014
lhumerus 32.1415 -26.105 70.5636
lradius 45.5111
lwrist -19.3698
lhand -6.77269 29.8958
lfingers 7.12502
lthumb 19.0894 58.979
rfemur -8.08477 0.206841 23.3981
rtibia 18.5736
rfoot -11.4761 -3.66316
rtoes -11.8866
lfemur -7.47328 2.20668 -16.2883
ltibia 17.5257
lfoot -10.5902 1.96338
ltoes -16.5036
1333
root 0.648933 18.4806 -4.37525 5.2157 0.910701 -2.9265
lowerback 10.4755 -0.669924 -0.304679
upperback -0.890194 -0.738573 2.83841
thorax -6.78614 -0.29449 3.28503
lowerneck -17.0164 -3.77733 -12.7159
upperneck 15.6917 -4.23096 11.8374
head 8.19405 -1.63357 5.60712
rclavicle -1.21756e-014 2.22639e-014
rhumerus 39.7444 17.851 -53.0541
rradius 103.266
rwrist 18.9457
rhand 4.70166 1.85846
rfingers 7.12502
rthumb 30.0854 -25.7133
lclavicle -1.21756e-014 2.22639e-014
lhumerus 33.1112 -24.7341 70.1555
lradius 43.6608
lwrist -19.2902
lhand -6.81086 29.7097
lfingers 7.12502
lthumb 19.0527 58.7966
rfemur -8.35616 0.329895 23.529
rtibia 18.7187
rfoot -11.3349 -3.36865
rtoes -12.0734
lfemur -7.49764 2.34614 -16.1642
ltibia 17.4422
lfoot -10.435 2.25584
ltoes -16.8408
1334
root 0.653457 18.4754 -4.38024 5.2496 0.116361 -2.96013
lowerback 10.5544 -0.821438 -0.701546
upperback -1.12696 -0.974787 3.00892
thorax -7.06077 -0.385894 3.7379
lowerneck -16.419 -3.24558 -12.7353
upperneck 15.7959 -3.54911 11.7359
head 8.02652 -1.3391 5.66043
rclavicle 3.52843e-015 -1.19271e-015
rhumerus 38.521 19.8859 -53.1373
rradius 105.318
rwrist 19.0767
rhand 5.34687 1.33433
rfingers 7.12502
rthumb 30.7008 -26.1237
lclavicle 3.52843e-015 -1.19271e-015
lhumerus 33.3465 -23.0631 70.2734
lradius 42.0411
lwrist -19.5552
lhand -6.75709 29.4132
lfingers 7.12502
lthumb 19.1044 58.495
rfemur -8.52241 0.540286 23.5474
rtibia 18.8093
rfoot -11.201 -3.20837
rtoes -11.4617
lfemur -7.38324 2.48201 -16.1307
ltibia 17.3942
lfoot -10.3994 2.58917
ltoes -16.8621
1335
root 0.656141 18.4755 -4.37978 5.19803 -0.52327 -2.98094
lowerback 10.8084 -1.20955 -1.28388
upperback -1.66493 -1.53266 3.37855
thorax -7.72047 -0.607745 4.58327
lowerneck -14.9662 -2.4065 -13.1162
upperneck 15.8855 -2.4741 11.7044
head 7.65368 -0.895295 5.83309
rclavicle -1.3418e-014 -8.74653e-015
rhumerus 37.1363 22.9501 -53.1732
rradius 107.914
rwrist 17.0699
rhand 7.87788 -0.991739
rfingers 7.12502
rthumb 33.1109 -27.9685
lclavicle -1.3418e-014 -8.74653e-015
lhumerus 32.6551 -20.9836 70.6888
lradius 40.5704
lwrist -19.7753
lhand -6.70471 29.1892
lfingers 7.12502
lthumb 19.1548 58.2659
rfemur -8.55039 0.588409 23.5475
rtibia 18.9208
rfoot -11.327 -3.08369
rtoes -11.4925
lfemur -7.10257 2.55739 -16.0761
ltibia 17.3283
lfoot -10.438 2.73951
ltoes -16.4724
1336
root 0.660302 18.4785 -4.38312 5.15798 -0.980999 -2.97313
lowerback 10.5104 -1.61881 -1.79252
upperback -1.5353 -2.13229 3.65018
thorax -7.33079 -0.884629 5.24481
lowerneck -14.9058 -1.83945 -13.194
upperneck 15.9405 -1.66729 11.6207
head 7.54925 -0.52483 5.90472
rclavicle 2.49475e-014 -9.54166e-015
rhumerus 36.6787 25.3529 -52.8555
rradius 108.87
rwrist 17.9645
rhand 4.77583 0.329415
rfingers 7.12502
rthumb 30.1561 -27.2295
lclavicle 2.49475e-014 -9.54166e-015
lhumerus 33.3201 -18.6536 70.4644
lradius 39.1304
lwrist -20.0189
lhand -6.94451 29.0903
lfingers 7.12502
lthumb 18.9242 58.1897
rfemur -8.57546 0.363479 23.5119
rtibia 18.9966
rfoot -11.5492 -2.72441
rtoes -11.7723
lfemur -6.95818 2.5125 -16.0488
ltibia 17.2793
lfoot -10.3866 2.72097
ltoes -16.4374
1337
root 0.670625 18.4771 -4.38713 5.15025 -1.38227 -2.92066
lowerback 10.8638 -1.80534 -2.00133
upperback -1.76405 -2.4057 3.66974
thorax -7.74255 -0.993743 5.45885
lowerneck -14.9277 -1.56325 -12.9882
upperneck 16.3137 -1.33063 11.4936
head 7.62586 -0.366649 5.8727
rclavicle -1.78906e-014 3.10104e-014
rhumerus 35.2679 27.367 -52.9259
rradius 110.058
rwrist 18.1962
rhand 3.2304 0.817399
rfingers 7.12502
rthumb 28.6807 -27.0008
lclavicle -1.78906e-014 3.10104e-014
lhumerus 33.7165 -17.0918 70.6199
lradius 38.041
lwrist -20.6451
lhand -7.56976 28.9075
lfingers 7.12502
lthumb 18.3228 58.0645
rfemur -8.58878 0.112321 23.3865
rtibia 18.9962
rfoot -11.6493 -2.17888
rtoes -11.8482
lfemur -6.93075 2.42791 -16.1108
ltibia 17.3133
lfoot -10.3684 2.74731
ltoes -16.6393
1338
root 0.67911 18.4742 -4.38729 5.19554 -1.7608 -3.01881
lowerback 11.0014 -1.90763 -1.92073
upperback -1.94307 -2.53234 3.6292
thorax -8.00631 -1.04981 5.40669
lowerneck -14.736 -1.34493 -12.7377
upperneck 16.417 -1.10264 11.4143
head 7.59211 -0.255522 5.82679
rclavicle 1.39646e-014 -3.18055e-015
rhumerus 33.4989 29.1355 -53.1676
rradius 111.571
rwrist 17.9711
rhand 3.60427 0.0740953
rfingers 7.12502
rthumb 29.0378 -27.6832
lclavicle 1.39646e-014 -3.18055e-015
lhumerus 34.2874 -15.8169 70.8667
lradius 37.1682
lwrist -21.3487
lhand -8.25261 27.4379
lfingers 7.12502
lthumb 17.6658 56.6554
rfemur -8.63973 0.0054954 23.4321
rtibia 18.9784
rfoot -11.6845 -1.76571
rtoes -11.9352
lfemur -6.94868 2.43149 -15.9942
ltibia 17.4439
lfoot -10.5 2.67451
ltoes -16.6827
1339
root 0.681729 18.4723 -4.38721 5.24951 -2.22412 -3.18129
lowerback 11.1359 -1.97222 -1.97055
upperback -2.10804 -2.61755 3.71367
thorax -8.24777 -1.07704 5.55723
lowerneck -14.6107 -1.12655 -12.6136
upperneck 16.553 -0.832407 11.3051
head 7.57676 -0.133435 5.79788
rclavicle -1.78906e-014 3.49861e-014
rhumerus 31.8425 31.0829 -53.3154
rradius 113.526
rwrist 16.2132
rhand 5.80802 -2.19569
rfingers 7.12502
rthumb 31.1404 -29.5703
lclavicle -1.78906e-014 3.49861e-014
lhumerus 34.8909 -14.6275 70.9186
lradius 36.3713
lwrist -21.5811
lhand -8.60748 26.2585
lfingers 7.12502
lthumb 17.3243 55.5063
rfemur -8.75211 0.0722839 23.5806
rtibia 19.0096
rfoot -11.6781 -1.5128
rtoes -12.2201
lfemur -6.98234 2.52412 -15.7891
ltibia 17.6337
lfoot -10.6545 2.58687
ltoes -16.7433
1340
root 0.684447 18.4702 -4.39138 5.30822 -2.74146 -3.26702
lowerback 11.109 -1.15075 -1.48149
upperback -1.26128 -1.51153 3.05641
thorax -7.46349 -0.607117 4.34478
lowerneck -17.9989 -2.21185 -11.357
upperneck 17.2696 -2.30939 11.2646
head 8.60758 -0.676044 5.46631
rclavicle -1.86361e-015 1.0138e-014
rhumerus 30.1748 29.3982 -53.5207
rradius 113.944
rwrist 17.0788
rhand 5.28191 -1.15083
rfingers 7.12502
rthumb 30.6388 -28.6205
lclavicle -1.86361e-015 1.0138e-014
lhumerus 38.8764 -15.6842 69.928
lradius 35.8058
lwrist -21.0291
lhand -8.21859 27.4347
lfingers 7.12502
lthumb 17.6985 56.6492
rfemur -8.92423 0.279094 23.6485
rtibia 19.092
rfoot -11.6208 -1.3502
rtoes -12.4253
lfemur -7.10754 2.68425 -15.6926
ltibia 17.851
lfoot -10.7043 2.63827
ltoes -16.9398
